<mxfile host="Electron" modified="2024-07-10T06:30:02.751Z" agent="Mozilla/5.0 (Windows NT 10.0; Win64; x64) AppleWebKit/537.36 (KHTML, like Gecko) draw.io/23.1.5 Chrome/120.0.6099.109 Electron/28.1.0 Safari/537.36" etag="KCC-9HHyDlQ2meIt-TEG" version="23.1.5" type="device">
  <diagram name="Page-1" id="3TUpHSHA1gtK3B0JEU8y">
    <mxGraphModel dx="724" dy="440" grid="1" gridSize="10" guides="1" tooltips="1" connect="1" arrows="1" fold="1" page="1" pageScale="1" pageWidth="583" pageHeight="413" math="0" shadow="0">
      <root>
        <mxCell id="0" />
        <mxCell id="1" parent="0" />
        <mxCell id="qH4T-rAI3x5ujD4XWjtl-252" value="" style="endArrow=none;html=1;rounded=0;" edge="1" parent="1">
          <mxGeometry width="50" height="50" relative="1" as="geometry">
            <mxPoint x="280" y="480" as="sourcePoint" />
            <mxPoint x="280" y="480" as="targetPoint" />
            <Array as="points">
              <mxPoint x="250" y="479.72" />
              <mxPoint x="246" y="409.72" />
              <mxPoint x="270" y="379.72" />
              <mxPoint x="270" y="339.72" />
              <mxPoint x="272" y="339.72" />
              <mxPoint x="288" y="339.72" />
              <mxPoint x="290" y="339.72" />
              <mxPoint x="290" y="379.72" />
              <mxPoint x="314" y="409.72" />
              <mxPoint x="310" y="479.72" />
            </Array>
          </mxGeometry>
        </mxCell>
        <mxCell id="QgdDYN5rGUicbWpnFUVR-4" value="&lt;div style=&quot;&quot;&gt;&lt;span style=&quot;background-color: initial;&quot;&gt;bottle&lt;/span&gt;&lt;/div&gt;&lt;div style=&quot;&quot;&gt;&lt;span style=&quot;background-color: initial;&quot;&gt;height&lt;/span&gt;&lt;/div&gt;" style="text;html=1;align=right;verticalAlign=middle;whiteSpace=wrap;rounded=0;fontSize=10;fontColor=#007FFF;allowArrows=0;connectable=0;spacingLeft=2;spacingTop=2;spacingBottom=2;spacingRight=2;" parent="1" vertex="1">
          <mxGeometry x="40" y="120" width="50" height="40" as="geometry" />
        </mxCell>
        <mxCell id="QgdDYN5rGUicbWpnFUVR-6" value="&lt;div style=&quot;&quot;&gt;&lt;span style=&quot;background-color: initial;&quot;&gt;bottle bulge&lt;/span&gt;&lt;/div&gt;" style="text;html=1;align=center;verticalAlign=middle;whiteSpace=wrap;rounded=0;fontSize=10;fontColor=#007FFF;allowArrows=0;connectable=0;spacingLeft=2;spacingTop=2;spacingBottom=2;spacingRight=2;" parent="1" vertex="1">
          <mxGeometry x="90" y="89" width="40" height="25" as="geometry" />
        </mxCell>
        <mxCell id="vKmyMk4U30r1ylPIldxQ-1" value="" style="endArrow=classicThin;html=1;rounded=0;strokeWidth=0.5;strokeColor=#007FFF;endFill=1;endSize=4;startArrow=classicThin;startFill=1;startSize=4;" parent="1" edge="1">
          <mxGeometry width="50" height="50" relative="1" as="geometry">
            <mxPoint x="180" y="120" as="sourcePoint" />
            <mxPoint x="180.24" y="80" as="targetPoint" />
          </mxGeometry>
        </mxCell>
        <mxCell id="vKmyMk4U30r1ylPIldxQ-2" value="&lt;div style=&quot;&quot;&gt;&lt;span style=&quot;background-color: initial;&quot;&gt;neck&lt;/span&gt;&lt;/div&gt;&lt;div style=&quot;&quot;&gt;&lt;span style=&quot;background-color: initial;&quot;&gt;height&lt;/span&gt;&lt;/div&gt;" style="text;html=1;align=left;verticalAlign=middle;whiteSpace=wrap;rounded=0;fontSize=10;fontColor=#007FFF;allowArrows=0;connectable=0;spacingLeft=2;spacingTop=2;spacingBottom=2;spacingRight=2;" parent="1" vertex="1">
          <mxGeometry x="180.24" y="85" width="50" height="29.64" as="geometry" />
        </mxCell>
        <mxCell id="vKmyMk4U30r1ylPIldxQ-6" value="&lt;div style=&quot;&quot;&gt;&lt;span style=&quot;background-color: initial;&quot;&gt;neck size&lt;/span&gt;&lt;/div&gt;" style="text;html=1;align=center;verticalAlign=bottom;whiteSpace=wrap;rounded=0;fontSize=10;fontColor=#007FFF;allowArrows=0;connectable=0;spacingLeft=2;spacingTop=2;spacingBottom=2;spacingRight=2;" parent="1" vertex="1">
          <mxGeometry x="110" y="49" width="60" height="20" as="geometry" />
        </mxCell>
        <mxCell id="-t4u0__WDk2onbK1k2eb-67" value="" style="endArrow=none;html=1;rounded=0;" parent="1" edge="1">
          <mxGeometry width="50" height="50" relative="1" as="geometry">
            <mxPoint x="125" y="220" as="sourcePoint" />
            <mxPoint x="155" y="220" as="targetPoint" />
            <Array as="points">
              <mxPoint x="110" y="220" />
              <mxPoint x="106" y="150" />
              <mxPoint x="107" y="145" />
              <mxPoint x="110" y="140" />
              <mxPoint x="120" y="130" />
              <mxPoint x="130" y="120" />
              <mxPoint x="130" y="100" />
              <mxPoint x="127" y="100" />
              <mxPoint x="127" y="85" />
              <mxPoint x="130" y="85" />
              <mxPoint x="130" y="80" />
              <mxPoint x="132" y="80" />
              <mxPoint x="148" y="80" />
              <mxPoint x="150" y="80" />
              <mxPoint x="150" y="85" />
              <mxPoint x="153" y="85" />
              <mxPoint x="153" y="100" />
              <mxPoint x="150" y="100" />
              <mxPoint x="150" y="120" />
              <mxPoint x="160" y="130" />
              <mxPoint x="170" y="140" />
              <mxPoint x="173" y="145" />
              <mxPoint x="174" y="150" />
              <mxPoint x="170" y="220" />
            </Array>
          </mxGeometry>
        </mxCell>
        <mxCell id="-t4u0__WDk2onbK1k2eb-68" value="" style="endArrow=none;html=1;rounded=0;curved=1;" parent="1" edge="1">
          <mxGeometry width="50" height="50" relative="1" as="geometry">
            <mxPoint x="155" y="220" as="sourcePoint" />
            <mxPoint x="125" y="220" as="targetPoint" />
            <Array as="points">
              <mxPoint x="150" y="220" />
              <mxPoint x="140" y="202" />
              <mxPoint x="130" y="220" />
            </Array>
          </mxGeometry>
        </mxCell>
        <mxCell id="-t4u0__WDk2onbK1k2eb-69" value="" style="endArrow=classicThin;html=1;rounded=0;strokeWidth=0.5;strokeColor=#007FFF;endFill=1;endSize=4;startArrow=classicThin;startFill=1;startSize=4;" parent="1" edge="1">
          <mxGeometry width="50" height="50" relative="1" as="geometry">
            <mxPoint x="130" y="70" as="sourcePoint" />
            <mxPoint x="150" y="70" as="targetPoint" />
          </mxGeometry>
        </mxCell>
        <mxCell id="-t4u0__WDk2onbK1k2eb-70" value="" style="endArrow=classicThin;html=1;rounded=0;strokeWidth=0.5;strokeColor=#007FFF;endFill=1;endSize=4;startArrow=classicThin;startFill=1;startSize=4;" parent="1" edge="1">
          <mxGeometry width="50" height="50" relative="1" as="geometry">
            <mxPoint x="90" y="80" as="sourcePoint" />
            <mxPoint x="90" y="220" as="targetPoint" />
          </mxGeometry>
        </mxCell>
        <mxCell id="-t4u0__WDk2onbK1k2eb-72" value="" style="whiteSpace=wrap;html=1;connectable=0;allowArrows=0;strokeColor=#007FFF;fillColor=none;shape=ellipse;perimeter=ellipsePerimeter;aspect=fixed;" parent="1" vertex="1">
          <mxGeometry x="137" y="217" width="6" height="6" as="geometry" />
        </mxCell>
        <mxCell id="-t4u0__WDk2onbK1k2eb-73" value="" style="endArrow=none;html=1;rounded=0;strokeWidth=0.5;dashed=1;strokeColor=#000000;" parent="1" edge="1">
          <mxGeometry width="50" height="50" relative="1" as="geometry">
            <mxPoint x="170" y="220" as="sourcePoint" />
            <mxPoint x="110" y="220" as="targetPoint" />
          </mxGeometry>
        </mxCell>
        <mxCell id="0A4ECjPYEgnLE-gKC64b-13" value="0" style="aspect=fixed;rotation=0;connectable=1;allowArrows=0;fillColor=none;strokeColor=#FF0000;strokeWidth=0.1;fontSize=6;spacing=0;spacingBottom=0;rounded=0;whiteSpace=wrap;html=1;shape=ellipse;perimeter=ellipsePerimeter;fontColor=#FF0000;dashed=1;" parent="1" vertex="1">
          <mxGeometry x="275" y="500" width="10" height="10" as="geometry" />
        </mxCell>
        <mxCell id="0A4ECjPYEgnLE-gKC64b-14" value="" style="endArrow=oval;html=1;rounded=0;strokeWidth=0.1;strokeColor=#FF0000;startSize=3;endSize=3;exitX=0.5;exitY=0;exitDx=0;exitDy=0;endFill=1;dashed=1;" parent="1" source="0A4ECjPYEgnLE-gKC64b-13" edge="1">
          <mxGeometry width="50" height="50" relative="1" as="geometry">
            <mxPoint x="293.25" y="490.36" as="sourcePoint" />
            <mxPoint x="280" y="480" as="targetPoint" />
          </mxGeometry>
        </mxCell>
        <mxCell id="0A4ECjPYEgnLE-gKC64b-15" value="2" style="aspect=fixed;rotation=0;connectable=1;allowArrows=0;fillColor=none;strokeColor=#FF0000;strokeWidth=0.1;fontSize=6;spacing=0;spacingBottom=0;rounded=0;whiteSpace=wrap;html=1;shape=ellipse;perimeter=ellipsePerimeter;fontColor=#FF0000;dashed=1;" parent="1" vertex="1">
          <mxGeometry x="305" y="500" width="10" height="10" as="geometry" />
        </mxCell>
        <mxCell id="0A4ECjPYEgnLE-gKC64b-16" value="" style="endArrow=oval;html=1;rounded=0;strokeWidth=0.1;strokeColor=#FF0000;startSize=3;endSize=3;exitX=0.5;exitY=0;exitDx=0;exitDy=0;endFill=1;dashed=1;" parent="1" source="0A4ECjPYEgnLE-gKC64b-15" edge="1">
          <mxGeometry width="50" height="50" relative="1" as="geometry">
            <mxPoint x="328" y="490" as="sourcePoint" />
            <mxPoint x="310" y="480" as="targetPoint" />
          </mxGeometry>
        </mxCell>
        <mxCell id="0A4ECjPYEgnLE-gKC64b-19" value="3" style="aspect=fixed;rotation=0;connectable=1;allowArrows=0;fillColor=none;strokeColor=#FF0000;strokeWidth=0.1;fontSize=6;spacing=0;spacingBottom=0;rounded=0;whiteSpace=wrap;html=1;shape=ellipse;perimeter=ellipsePerimeter;fontColor=#FF0000;dashed=1;" parent="1" vertex="1">
          <mxGeometry x="334" y="405" width="10" height="10" as="geometry" />
        </mxCell>
        <mxCell id="0A4ECjPYEgnLE-gKC64b-20" value="" style="endArrow=oval;html=1;rounded=0;strokeWidth=0.1;strokeColor=#FF0000;startSize=3;endSize=3;exitX=0;exitY=0.5;exitDx=0;exitDy=0;endFill=1;dashed=1;" parent="1" source="0A4ECjPYEgnLE-gKC64b-19" edge="1">
          <mxGeometry width="50" height="50" relative="1" as="geometry">
            <mxPoint x="331" y="420.36" as="sourcePoint" />
            <mxPoint x="314" y="410" as="targetPoint" />
          </mxGeometry>
        </mxCell>
        <mxCell id="0A4ECjPYEgnLE-gKC64b-21" value="" style="endArrow=oval;html=1;rounded=0;strokeWidth=0.1;strokeColor=#FF0000;startSize=3;endSize=3;exitX=0;exitY=0.5;exitDx=0;exitDy=0;endFill=1;dashed=1;" parent="1" source="0A4ECjPYEgnLE-gKC64b-22" edge="1">
          <mxGeometry width="50" height="50" relative="1" as="geometry">
            <mxPoint x="307" y="390" as="sourcePoint" />
            <mxPoint x="290" y="380" as="targetPoint" />
          </mxGeometry>
        </mxCell>
        <mxCell id="0A4ECjPYEgnLE-gKC64b-22" value="4" style="aspect=fixed;rotation=0;connectable=1;allowArrows=0;fillColor=none;strokeColor=#FF0000;strokeWidth=0.1;fontSize=6;spacing=0;spacingBottom=0;rounded=0;whiteSpace=wrap;html=1;shape=ellipse;perimeter=ellipsePerimeter;fontColor=#FF0000;dashed=1;" parent="1" vertex="1">
          <mxGeometry x="300" y="375" width="10" height="10" as="geometry" />
        </mxCell>
        <mxCell id="0A4ECjPYEgnLE-gKC64b-27" value="" style="endArrow=oval;html=1;rounded=0;strokeWidth=0.1;strokeColor=#FF0000;startSize=3;endSize=3;exitX=0.5;exitY=0;exitDx=0;exitDy=0;endFill=1;dashed=1;" parent="1" source="0A4ECjPYEgnLE-gKC64b-28" edge="1">
          <mxGeometry width="50" height="50" relative="1" as="geometry">
            <mxPoint x="318" y="490" as="sourcePoint" />
            <mxPoint x="300" y="480" as="targetPoint" />
          </mxGeometry>
        </mxCell>
        <mxCell id="0A4ECjPYEgnLE-gKC64b-28" value="1" style="aspect=fixed;rotation=0;connectable=1;allowArrows=0;fillColor=none;strokeColor=#FF0000;strokeWidth=0.1;fontSize=6;spacing=0;spacingBottom=0;rounded=0;whiteSpace=wrap;html=1;shape=ellipse;perimeter=ellipsePerimeter;fontColor=#FF0000;dashed=1;" parent="1" vertex="1">
          <mxGeometry x="295" y="500" width="10" height="10" as="geometry" />
        </mxCell>
        <mxCell id="0A4ECjPYEgnLE-gKC64b-32" value="uv = 0.0" style="rotation=0;connectable=1;allowArrows=0;fillColor=#FF0000;strokeColor=#FF0000;strokeWidth=0.1;fontSize=6;spacing=0;spacingBottom=0;rounded=1;whiteSpace=wrap;html=1;shape=label;fontColor=#FFFFFF;dashed=1;labelBackgroundColor=none;" parent="1" vertex="1">
          <mxGeometry x="125" y="229" width="30" height="10" as="geometry" />
        </mxCell>
        <mxCell id="0A4ECjPYEgnLE-gKC64b-33" value="uv = 0.1" style="rotation=0;connectable=1;allowArrows=0;fillColor=#FF0000;strokeColor=#FF0000;strokeWidth=0.1;fontSize=6;spacing=0;spacingBottom=0;rounded=1;whiteSpace=wrap;html=1;shape=label;fontColor=#FFFFFF;dashed=1;labelBackgroundColor=none;" parent="1" vertex="1">
          <mxGeometry x="186" y="229" width="30" height="10" as="geometry" />
        </mxCell>
        <mxCell id="0A4ECjPYEgnLE-gKC64b-34" value="uv = 1.0" style="rotation=0;connectable=1;allowArrows=0;fillColor=#FF0000;strokeColor=#FF0000;strokeWidth=0.1;fontSize=6;spacing=0;spacingBottom=0;rounded=1;whiteSpace=wrap;html=1;shape=label;fontColor=#FFFFFF;dashed=1;labelBackgroundColor=none;" parent="1" vertex="1">
          <mxGeometry x="85" y="62" width="30" height="10" as="geometry" />
        </mxCell>
        <mxCell id="0A4ECjPYEgnLE-gKC64b-36" value="uv = 0.9" style="rotation=0;connectable=1;allowArrows=0;fillColor=#FF0000;strokeColor=#FF0000;strokeWidth=0.1;fontSize=6;spacing=0;spacingBottom=0;rounded=1;whiteSpace=wrap;html=1;shape=label;fontColor=#FFFFFF;dashed=1;labelBackgroundColor=none;" parent="1" vertex="1">
          <mxGeometry x="165" y="62" width="30" height="10" as="geometry" />
        </mxCell>
        <mxCell id="0A4ECjPYEgnLE-gKC64b-37" value="" style="endArrow=oval;html=1;rounded=0;strokeWidth=0.1;strokeColor=#FF0000;startSize=3;endSize=3;exitX=0;exitY=0.5;exitDx=0;exitDy=0;endFill=1;dashed=1;" parent="1" source="0A4ECjPYEgnLE-gKC64b-33" edge="1">
          <mxGeometry width="50" height="50" relative="1" as="geometry">
            <mxPoint x="200" y="320" as="sourcePoint" />
            <mxPoint x="170" y="220" as="targetPoint" />
            <Array as="points" />
          </mxGeometry>
        </mxCell>
        <mxCell id="0A4ECjPYEgnLE-gKC64b-38" value="" style="endArrow=oval;html=1;rounded=0;strokeWidth=0.1;strokeColor=#FF0000;startSize=3;endSize=3;exitX=0.5;exitY=0;exitDx=0;exitDy=0;endFill=1;dashed=1;" parent="1" source="0A4ECjPYEgnLE-gKC64b-32" edge="1">
          <mxGeometry width="50" height="50" relative="1" as="geometry">
            <mxPoint x="185" y="238" as="sourcePoint" />
            <mxPoint x="140" y="220" as="targetPoint" />
          </mxGeometry>
        </mxCell>
        <mxCell id="0A4ECjPYEgnLE-gKC64b-39" value="" style="endArrow=oval;html=1;rounded=0;strokeWidth=0.1;strokeColor=#FF0000;startSize=3;endSize=3;endFill=1;dashed=1;exitX=0;exitY=1;exitDx=0;exitDy=0;" parent="1" source="0A4ECjPYEgnLE-gKC64b-36" edge="1">
          <mxGeometry width="50" height="50" relative="1" as="geometry">
            <mxPoint x="260" y="120" as="sourcePoint" />
            <mxPoint x="150" y="80" as="targetPoint" />
          </mxGeometry>
        </mxCell>
        <mxCell id="0A4ECjPYEgnLE-gKC64b-40" value="" style="endArrow=oval;html=1;rounded=0;strokeWidth=0.1;strokeColor=#FF0000;startSize=3;endSize=3;endFill=1;dashed=1;exitX=0.929;exitY=0.871;exitDx=0;exitDy=0;exitPerimeter=0;" parent="1" source="0A4ECjPYEgnLE-gKC64b-34" edge="1">
          <mxGeometry width="50" height="50" relative="1" as="geometry">
            <mxPoint x="140" y="140" as="sourcePoint" />
            <mxPoint x="140" y="80" as="targetPoint" />
          </mxGeometry>
        </mxCell>
        <mxCell id="0A4ECjPYEgnLE-gKC64b-42" value="" style="endArrow=oval;html=1;rounded=0;strokeWidth=0.1;strokeColor=#FF0000;startSize=3;endSize=3;endFill=1;dashed=1;" parent="1" edge="1">
          <mxGeometry width="50" height="50" relative="1" as="geometry">
            <mxPoint x="140" y="220" as="sourcePoint" />
            <mxPoint x="140" y="207" as="targetPoint" />
          </mxGeometry>
        </mxCell>
        <mxCell id="0A4ECjPYEgnLE-gKC64b-47" value="" style="endArrow=classicThin;html=1;rounded=0;strokeWidth=0.1;strokeColor=#007FFF;startSize=2;endSize=2;endFill=1;startArrow=classicThin;startFill=1;dashed=1;" parent="1" edge="1">
          <mxGeometry width="50" height="50" relative="1" as="geometry">
            <mxPoint x="90" y="339" as="sourcePoint" />
            <mxPoint x="90" y="479" as="targetPoint" />
          </mxGeometry>
        </mxCell>
        <mxCell id="0A4ECjPYEgnLE-gKC64b-48" value="&lt;div style=&quot;font-size: 6px;&quot;&gt;bH&lt;/div&gt;" style="text;html=1;align=center;verticalAlign=middle;whiteSpace=wrap;rounded=0;fontSize=6;fontColor=#007FFF;allowArrows=0;connectable=0;spacingLeft=2;spacingTop=2;spacingBottom=2;spacingRight=2;" parent="1" vertex="1">
          <mxGeometry x="75" y="400" width="10" height="10" as="geometry" />
        </mxCell>
        <mxCell id="0A4ECjPYEgnLE-gKC64b-49" value="body" style="text;html=1;align=center;verticalAlign=middle;whiteSpace=wrap;rounded=0;fontStyle=1;connectable=0;allowArrows=0;" parent="1" vertex="1">
          <mxGeometry x="110" y="155" width="60" height="30" as="geometry" />
        </mxCell>
        <mxCell id="qH4T-rAI3x5ujD4XWjtl-1" value="" style="endArrow=classicThin;html=1;rounded=0;strokeWidth=0.5;strokeColor=#007FFF;endFill=1;endSize=4;startArrow=classicThin;startFill=1;startSize=4;" edge="1" parent="1">
          <mxGeometry width="50" height="50" relative="1" as="geometry">
            <mxPoint x="110" y="250" as="sourcePoint" />
            <mxPoint x="170" y="250" as="targetPoint" />
          </mxGeometry>
        </mxCell>
        <mxCell id="qH4T-rAI3x5ujD4XWjtl-2" value="&lt;div style=&quot;&quot;&gt;&lt;span style=&quot;background-color: initial;&quot;&gt;bottle size&lt;/span&gt;&lt;/div&gt;" style="text;html=1;align=center;verticalAlign=bottom;whiteSpace=wrap;rounded=0;fontSize=10;fontColor=#007FFF;allowArrows=0;connectable=0;spacingLeft=2;spacingTop=2;spacingBottom=2;spacingRight=2;" vertex="1" parent="1">
          <mxGeometry x="110" y="250" width="60" height="20" as="geometry" />
        </mxCell>
        <mxCell id="qH4T-rAI3x5ujD4XWjtl-3" value="" style="endArrow=none;html=1;rounded=0;strokeWidth=0.2;strokeColor=#007FFF;startSize=2;endSize=2;endFill=0;startArrow=none;startFill=0;dashed=1;" edge="1" parent="1">
          <mxGeometry width="50" height="50" relative="1" as="geometry">
            <mxPoint x="110" y="220" as="sourcePoint" />
            <mxPoint x="110" y="130" as="targetPoint" />
          </mxGeometry>
        </mxCell>
        <mxCell id="qH4T-rAI3x5ujD4XWjtl-4" value="" style="endArrow=none;html=1;rounded=0;strokeWidth=0.5;strokeColor=#007FFF;endFill=0;endSize=4;startArrow=classicThin;startFill=1;startSize=4;curved=1;" edge="1" parent="1">
          <mxGeometry width="50" height="50" relative="1" as="geometry">
            <mxPoint x="108" y="132" as="sourcePoint" />
            <mxPoint x="108" y="115" as="targetPoint" />
            <Array as="points" />
          </mxGeometry>
        </mxCell>
        <mxCell id="qH4T-rAI3x5ujD4XWjtl-5" value="" style="endArrow=classicThin;html=1;rounded=0;strokeWidth=0.5;strokeColor=#007FFF;endFill=1;endSize=4;startArrow=classicThin;startFill=1;startSize=4;" edge="1" parent="1">
          <mxGeometry width="50" height="50" relative="1" as="geometry">
            <mxPoint x="180" y="205" as="sourcePoint" />
            <mxPoint x="180" y="219.5" as="targetPoint" />
          </mxGeometry>
        </mxCell>
        <mxCell id="qH4T-rAI3x5ujD4XWjtl-6" value="&lt;div style=&quot;&quot;&gt;&lt;span style=&quot;background-color: initial;&quot;&gt;punt height&lt;/span&gt;&lt;/div&gt;" style="text;html=1;align=left;verticalAlign=middle;whiteSpace=wrap;rounded=0;fontSize=10;fontColor=#007FFF;allowArrows=0;connectable=0;spacingLeft=2;spacingTop=2;spacingBottom=2;spacingRight=2;" vertex="1" parent="1">
          <mxGeometry x="181" y="199" width="40" height="25" as="geometry" />
        </mxCell>
        <mxCell id="qH4T-rAI3x5ujD4XWjtl-7" value="" style="endArrow=none;html=1;rounded=0;strokeWidth=0.5;dashed=1;strokeColor=#000000;" edge="1" parent="1">
          <mxGeometry width="50" height="50" relative="1" as="geometry">
            <mxPoint x="130" y="101" as="sourcePoint" />
            <mxPoint x="130" y="85" as="targetPoint" />
          </mxGeometry>
        </mxCell>
        <mxCell id="qH4T-rAI3x5ujD4XWjtl-8" value="" style="endArrow=none;html=1;rounded=0;strokeWidth=0.5;dashed=1;strokeColor=#000000;" edge="1" parent="1">
          <mxGeometry width="50" height="50" relative="1" as="geometry">
            <mxPoint x="150" y="99.82" as="sourcePoint" />
            <mxPoint x="150" y="83.82" as="targetPoint" />
          </mxGeometry>
        </mxCell>
        <mxCell id="qH4T-rAI3x5ujD4XWjtl-9" value="" style="endArrow=classicThin;html=1;rounded=0;strokeWidth=0.5;strokeColor=#007FFF;endFill=1;endSize=4;startArrow=classicThin;startFill=1;startSize=4;" edge="1" parent="1">
          <mxGeometry width="50" height="50" relative="1" as="geometry">
            <mxPoint x="180" y="150" as="sourcePoint" />
            <mxPoint x="180" y="120" as="targetPoint" />
          </mxGeometry>
        </mxCell>
        <mxCell id="qH4T-rAI3x5ujD4XWjtl-10" value="&lt;div style=&quot;&quot;&gt;&lt;span style=&quot;background-color: initial;&quot;&gt;neck&lt;/span&gt;&lt;/div&gt;&lt;div style=&quot;&quot;&gt;&lt;span style=&quot;background-color: initial;&quot;&gt;smooth&lt;/span&gt;&lt;/div&gt;" style="text;html=1;align=left;verticalAlign=middle;whiteSpace=wrap;rounded=0;fontSize=10;fontColor=#007FFF;allowArrows=0;connectable=0;spacingLeft=2;spacingTop=2;spacingBottom=2;spacingRight=2;" vertex="1" parent="1">
          <mxGeometry x="180" y="120" width="50" height="29.64" as="geometry" />
        </mxCell>
        <mxCell id="qH4T-rAI3x5ujD4XWjtl-56" value="uv = 1.0" style="rotation=0;connectable=1;allowArrows=0;fillColor=#FF0000;strokeColor=#FF0000;strokeWidth=0.1;fontSize=6;spacing=0;spacingBottom=0;rounded=1;whiteSpace=wrap;html=1;shape=label;fontColor=#FFFFFF;dashed=1;labelBackgroundColor=none;" vertex="1" parent="1">
          <mxGeometry x="181" y="181" width="30" height="10" as="geometry" />
        </mxCell>
        <mxCell id="qH4T-rAI3x5ujD4XWjtl-57" value="" style="endArrow=oval;html=1;rounded=0;strokeWidth=0.1;strokeColor=#FF0000;startSize=3;endSize=3;endFill=1;dashed=1;exitX=0;exitY=1;exitDx=0;exitDy=0;" edge="1" source="qH4T-rAI3x5ujD4XWjtl-56" parent="1">
          <mxGeometry width="50" height="50" relative="1" as="geometry">
            <mxPoint x="80" y="222" as="sourcePoint" />
            <mxPoint x="140" y="207" as="targetPoint" />
          </mxGeometry>
        </mxCell>
        <mxCell id="qH4T-rAI3x5ujD4XWjtl-60" value="" style="endArrow=classicThin;html=1;rounded=0;strokeWidth=0.5;strokeColor=#007FFF;endFill=1;endSize=4;startArrow=classicThin;startFill=1;startSize=4;" edge="1" parent="1">
          <mxGeometry width="50" height="50" relative="1" as="geometry">
            <mxPoint x="410" y="180" as="sourcePoint" />
            <mxPoint x="410.24" y="90" as="targetPoint" />
          </mxGeometry>
        </mxCell>
        <mxCell id="qH4T-rAI3x5ujD4XWjtl-61" value="&lt;div style=&quot;&quot;&gt;&lt;span style=&quot;background-color: initial;&quot;&gt;neck&lt;/span&gt;&lt;/div&gt;&lt;div style=&quot;&quot;&gt;&lt;span style=&quot;background-color: initial;&quot;&gt;height&lt;/span&gt;&lt;/div&gt;" style="text;html=1;align=left;verticalAlign=middle;whiteSpace=wrap;rounded=0;fontSize=10;fontColor=#007FFF;allowArrows=0;connectable=0;spacingLeft=2;spacingTop=2;spacingBottom=2;spacingRight=2;" vertex="1" parent="1">
          <mxGeometry x="412" y="116" width="50" height="29.64" as="geometry" />
        </mxCell>
        <mxCell id="qH4T-rAI3x5ujD4XWjtl-62" value="&lt;div style=&quot;&quot;&gt;&lt;span style=&quot;background-color: initial;&quot;&gt;neck size&lt;/span&gt;&lt;/div&gt;" style="text;html=1;align=center;verticalAlign=bottom;whiteSpace=wrap;rounded=0;fontSize=10;fontColor=#007FFF;allowArrows=0;connectable=0;spacingLeft=2;spacingTop=2;spacingBottom=2;spacingRight=2;" vertex="1" parent="1">
          <mxGeometry x="300" y="59" width="60" height="20" as="geometry" />
        </mxCell>
        <mxCell id="qH4T-rAI3x5ujD4XWjtl-63" value="" style="endArrow=none;html=1;rounded=0;" edge="1" parent="1">
          <mxGeometry width="50" height="50" relative="1" as="geometry">
            <mxPoint x="270" y="210" as="sourcePoint" />
            <mxPoint x="390" y="210" as="targetPoint" />
            <Array as="points">
              <mxPoint x="310" y="180" />
              <mxPoint x="310" y="160" />
              <mxPoint x="300" y="160" />
              <mxPoint x="300" y="110" />
              <mxPoint x="310" y="110" />
              <mxPoint x="310" y="90" />
              <mxPoint x="350" y="90" />
              <mxPoint x="350" y="110" />
              <mxPoint x="360" y="110" />
              <mxPoint x="360" y="160" />
              <mxPoint x="350" y="160" />
              <mxPoint x="350" y="180" />
            </Array>
          </mxGeometry>
        </mxCell>
        <mxCell id="qH4T-rAI3x5ujD4XWjtl-65" value="" style="endArrow=classicThin;html=1;rounded=0;strokeWidth=0.5;strokeColor=#007FFF;endFill=1;endSize=4;startArrow=classicThin;startFill=1;startSize=4;" edge="1" parent="1">
          <mxGeometry width="50" height="50" relative="1" as="geometry">
            <mxPoint x="310" y="80" as="sourcePoint" />
            <mxPoint x="350" y="80" as="targetPoint" />
          </mxGeometry>
        </mxCell>
        <mxCell id="qH4T-rAI3x5ujD4XWjtl-86" value="" style="endArrow=none;html=1;rounded=0;strokeWidth=0.5;dashed=1;strokeColor=#000000;" edge="1" parent="1">
          <mxGeometry width="50" height="50" relative="1" as="geometry">
            <mxPoint x="310" y="160" as="sourcePoint" />
            <mxPoint x="310" y="108.64" as="targetPoint" />
          </mxGeometry>
        </mxCell>
        <mxCell id="qH4T-rAI3x5ujD4XWjtl-90" value="" style="endArrow=classicThin;html=1;rounded=0;strokeWidth=0.5;strokeColor=#007FFF;endFill=1;endSize=4;startArrow=classicThin;startFill=1;startSize=4;" edge="1" parent="1">
          <mxGeometry width="50" height="50" relative="1" as="geometry">
            <mxPoint x="370" y="160" as="sourcePoint" />
            <mxPoint x="370.12" y="109.64" as="targetPoint" />
          </mxGeometry>
        </mxCell>
        <mxCell id="qH4T-rAI3x5ujD4XWjtl-91" value="&lt;div style=&quot;&quot;&gt;&lt;span style=&quot;background-color: initial;&quot;&gt;top&lt;/span&gt;&lt;/div&gt;&lt;div style=&quot;&quot;&gt;&lt;span style=&quot;background-color: initial;&quot;&gt;height&lt;/span&gt;&lt;/div&gt;" style="text;html=1;align=left;verticalAlign=middle;whiteSpace=wrap;rounded=0;fontSize=10;fontColor=#007FFF;allowArrows=0;connectable=0;spacingLeft=2;spacingTop=2;spacingBottom=2;spacingRight=2;" vertex="1" parent="1">
          <mxGeometry x="375" y="120" width="50" height="29.64" as="geometry" />
        </mxCell>
        <mxCell id="qH4T-rAI3x5ujD4XWjtl-92" value="&lt;div style=&quot;&quot;&gt;&lt;span style=&quot;background-color: initial;&quot;&gt;top&lt;/span&gt;&lt;/div&gt;&lt;div style=&quot;&quot;&gt;&lt;span style=&quot;background-color: initial;&quot;&gt;size&lt;/span&gt;&lt;/div&gt;" style="text;html=1;align=right;verticalAlign=middle;whiteSpace=wrap;rounded=0;fontSize=10;fontColor=#007FFF;allowArrows=0;connectable=0;spacingLeft=2;spacingTop=2;spacingBottom=2;spacingRight=2;" vertex="1" parent="1">
          <mxGeometry x="260" y="79" width="30" height="29.64" as="geometry" />
        </mxCell>
        <mxCell id="qH4T-rAI3x5ujD4XWjtl-93" value="&lt;div style=&quot;&quot;&gt;&lt;span style=&quot;background-color: initial;&quot;&gt;top&lt;/span&gt;&lt;/div&gt;&lt;div style=&quot;&quot;&gt;&lt;span style=&quot;background-color: initial;&quot;&gt;offset&lt;/span&gt;&lt;/div&gt;" style="text;html=1;align=left;verticalAlign=middle;whiteSpace=wrap;rounded=0;fontSize=10;fontColor=#007FFF;allowArrows=0;connectable=0;spacingLeft=2;spacingTop=2;spacingBottom=2;spacingRight=2;" vertex="1" parent="1">
          <mxGeometry x="374" y="87" width="30" height="29.64" as="geometry" />
        </mxCell>
        <mxCell id="qH4T-rAI3x5ujD4XWjtl-95" value="" style="endArrow=classicThin;html=1;rounded=1;strokeWidth=0.5;strokeColor=#007FFF;endFill=1;endSize=4;startArrow=none;startFill=0;startSize=4;curved=0;" edge="1" parent="1">
          <mxGeometry width="50" height="50" relative="1" as="geometry">
            <mxPoint x="288" y="96" as="sourcePoint" />
            <mxPoint x="305" y="110" as="targetPoint" />
            <Array as="points">
              <mxPoint x="303" y="96" />
            </Array>
          </mxGeometry>
        </mxCell>
        <mxCell id="qH4T-rAI3x5ujD4XWjtl-98" value="" style="endArrow=none;html=1;rounded=0;strokeWidth=0.2;strokeColor=#007FFF;startSize=2;endSize=2;endFill=0;startArrow=none;startFill=0;dashed=1;" edge="1" parent="1">
          <mxGeometry width="50" height="50" relative="1" as="geometry">
            <mxPoint x="106" y="158.64" as="sourcePoint" />
            <mxPoint x="106" y="130" as="targetPoint" />
          </mxGeometry>
        </mxCell>
        <mxCell id="qH4T-rAI3x5ujD4XWjtl-99" value="" style="endArrow=none;html=1;rounded=0;strokeWidth=0.5;dashed=1;strokeColor=#000000;" edge="1" parent="1">
          <mxGeometry width="50" height="50" relative="1" as="geometry">
            <mxPoint x="349.76" y="159.64" as="sourcePoint" />
            <mxPoint x="349.76" y="108.28" as="targetPoint" />
          </mxGeometry>
        </mxCell>
        <mxCell id="qH4T-rAI3x5ujD4XWjtl-100" value="" style="endArrow=classicThin;html=1;rounded=0;strokeWidth=0.5;strokeColor=#007FFF;endFill=1;endSize=4;startArrow=classicThin;startFill=1;startSize=4;" edge="1" parent="1">
          <mxGeometry width="50" height="50" relative="1" as="geometry">
            <mxPoint x="370" y="90" as="sourcePoint" />
            <mxPoint x="370" y="110" as="targetPoint" />
          </mxGeometry>
        </mxCell>
        <mxCell id="qH4T-rAI3x5ujD4XWjtl-196" value="" style="endArrow=none;html=1;rounded=0;" edge="1" parent="1">
          <mxGeometry width="50" height="50" relative="1" as="geometry">
            <mxPoint x="125" y="479.72" as="sourcePoint" />
            <mxPoint x="155" y="479.72" as="targetPoint" />
            <Array as="points">
              <mxPoint x="110" y="479.72" />
              <mxPoint x="106" y="409.72" />
              <mxPoint x="107" y="404.72" />
              <mxPoint x="110" y="399.72" />
              <mxPoint x="120" y="389.72" />
              <mxPoint x="130" y="379.72" />
              <mxPoint x="130" y="359.72" />
              <mxPoint x="127" y="359.72" />
              <mxPoint x="127" y="344.72" />
              <mxPoint x="130" y="344.72" />
              <mxPoint x="130" y="339.72" />
              <mxPoint x="132" y="339.72" />
              <mxPoint x="148" y="339.72" />
              <mxPoint x="150" y="339.72" />
              <mxPoint x="150" y="344.72" />
              <mxPoint x="153" y="344.72" />
              <mxPoint x="153" y="359.72" />
              <mxPoint x="150" y="359.72" />
              <mxPoint x="150" y="379.72" />
              <mxPoint x="160" y="389.72" />
              <mxPoint x="170" y="399.72" />
              <mxPoint x="173" y="404.72" />
              <mxPoint x="174" y="409.72" />
              <mxPoint x="170" y="479.72" />
            </Array>
          </mxGeometry>
        </mxCell>
        <mxCell id="qH4T-rAI3x5ujD4XWjtl-197" value="" style="endArrow=none;html=1;rounded=0;curved=1;" edge="1" parent="1">
          <mxGeometry width="50" height="50" relative="1" as="geometry">
            <mxPoint x="155" y="479.72" as="sourcePoint" />
            <mxPoint x="125" y="479.72" as="targetPoint" />
            <Array as="points">
              <mxPoint x="150" y="479.72" />
              <mxPoint x="140" y="461.72" />
              <mxPoint x="130" y="479.72" />
            </Array>
          </mxGeometry>
        </mxCell>
        <mxCell id="qH4T-rAI3x5ujD4XWjtl-201" value="" style="endArrow=none;html=1;rounded=0;strokeWidth=0.5;dashed=1;strokeColor=#000000;" edge="1" parent="1">
          <mxGeometry width="50" height="50" relative="1" as="geometry">
            <mxPoint x="170" y="479.72" as="sourcePoint" />
            <mxPoint x="110" y="479.72" as="targetPoint" />
          </mxGeometry>
        </mxCell>
        <mxCell id="qH4T-rAI3x5ujD4XWjtl-214" value="" style="endArrow=none;html=1;rounded=0;strokeWidth=0.2;strokeColor=#007FFF;startSize=2;endSize=2;endFill=0;startArrow=none;startFill=0;dashed=1;" edge="1" parent="1">
          <mxGeometry width="50" height="50" relative="1" as="geometry">
            <mxPoint x="110" y="479.72" as="sourcePoint" />
            <mxPoint x="110" y="389.72" as="targetPoint" />
          </mxGeometry>
        </mxCell>
        <mxCell id="qH4T-rAI3x5ujD4XWjtl-224" value="" style="endArrow=none;html=1;rounded=0;strokeWidth=0.2;strokeColor=#007FFF;startSize=2;endSize=2;endFill=0;startArrow=none;startFill=0;dashed=1;" edge="1" parent="1">
          <mxGeometry width="50" height="50" relative="1" as="geometry">
            <mxPoint x="106" y="418.36" as="sourcePoint" />
            <mxPoint x="106" y="389.72" as="targetPoint" />
          </mxGeometry>
        </mxCell>
        <mxCell id="qH4T-rAI3x5ujD4XWjtl-225" value="" style="endArrow=classicThin;html=1;rounded=0;strokeWidth=0.1;strokeColor=#007FFF;startSize=2;endSize=2;endFill=1;startArrow=classicThin;startFill=1;dashed=1;" edge="1" parent="1">
          <mxGeometry width="50" height="50" relative="1" as="geometry">
            <mxPoint x="140" y="467" as="sourcePoint" />
            <mxPoint x="140" y="480" as="targetPoint" />
          </mxGeometry>
        </mxCell>
        <mxCell id="qH4T-rAI3x5ujD4XWjtl-226" value="&lt;div style=&quot;font-size: 6px;&quot;&gt;pH&lt;/div&gt;" style="text;html=1;align=center;verticalAlign=middle;whiteSpace=wrap;rounded=0;fontSize=6;fontColor=#007FFF;allowArrows=0;connectable=0;spacingLeft=2;spacingTop=2;spacingBottom=2;spacingRight=2;" vertex="1" parent="1">
          <mxGeometry x="131" y="469" width="10" height="10" as="geometry" />
        </mxCell>
        <mxCell id="qH4T-rAI3x5ujD4XWjtl-227" value="" style="endArrow=classicThin;html=1;rounded=0;strokeWidth=0.1;strokeColor=#007FFF;startSize=2;endSize=2;endFill=1;startArrow=classicThin;startFill=1;dashed=1;" edge="1" parent="1">
          <mxGeometry width="50" height="50" relative="1" as="geometry">
            <mxPoint x="140" y="489.64" as="sourcePoint" />
            <mxPoint x="170" y="489.64" as="targetPoint" />
          </mxGeometry>
        </mxCell>
        <mxCell id="qH4T-rAI3x5ujD4XWjtl-228" value="&lt;div style=&quot;font-size: 6px;&quot;&gt;bS&lt;/div&gt;" style="text;html=1;align=center;verticalAlign=middle;whiteSpace=wrap;rounded=0;fontSize=6;fontColor=#007FFF;allowArrows=0;connectable=0;spacingLeft=2;spacingTop=2;spacingBottom=2;spacingRight=2;" vertex="1" parent="1">
          <mxGeometry x="140" y="490" width="30" height="10" as="geometry" />
        </mxCell>
        <mxCell id="qH4T-rAI3x5ujD4XWjtl-229" value="" style="endArrow=classicThin;html=1;rounded=0;strokeWidth=0.1;strokeColor=#007FFF;startSize=2;endSize=2;endFill=1;startArrow=none;startFill=0;dashed=1;" edge="1" parent="1">
          <mxGeometry width="50" height="50" relative="1" as="geometry">
            <mxPoint x="178" y="442" as="sourcePoint" />
            <mxPoint x="172" y="442" as="targetPoint" />
          </mxGeometry>
        </mxCell>
        <mxCell id="qH4T-rAI3x5ujD4XWjtl-230" value="" style="endArrow=classicThin;html=1;rounded=0;strokeWidth=0.1;strokeColor=#007FFF;startSize=2;endSize=2;endFill=1;startArrow=none;startFill=0;dashed=1;" edge="1" parent="1">
          <mxGeometry width="50" height="50" relative="1" as="geometry">
            <mxPoint x="167" y="442" as="sourcePoint" />
            <mxPoint x="172" y="442" as="targetPoint" />
          </mxGeometry>
        </mxCell>
        <mxCell id="qH4T-rAI3x5ujD4XWjtl-231" value="&lt;div style=&quot;font-size: 6px;&quot;&gt;bW&lt;/div&gt;" style="text;html=1;align=center;verticalAlign=middle;whiteSpace=wrap;rounded=0;fontSize=6;fontColor=#007FFF;allowArrows=0;connectable=0;spacingLeft=2;spacingTop=2;spacingBottom=2;spacingRight=2;" vertex="1" parent="1">
          <mxGeometry x="180" y="437" width="10" height="10" as="geometry" />
        </mxCell>
        <mxCell id="qH4T-rAI3x5ujD4XWjtl-234" value="" style="endArrow=classicThin;html=1;rounded=0;strokeWidth=0.1;strokeColor=#007FFF;startSize=2;endSize=2;endFill=1;startArrow=none;startFill=0;dashed=1;" edge="1" parent="1">
          <mxGeometry width="50" height="50" relative="1" as="geometry">
            <mxPoint x="116" y="410" as="sourcePoint" />
            <mxPoint x="110" y="410" as="targetPoint" />
          </mxGeometry>
        </mxCell>
        <mxCell id="qH4T-rAI3x5ujD4XWjtl-235" value="" style="endArrow=classicThin;html=1;rounded=0;strokeWidth=0.1;strokeColor=#007FFF;startSize=2;endSize=2;endFill=1;startArrow=none;startFill=0;dashed=1;" edge="1" parent="1">
          <mxGeometry width="50" height="50" relative="1" as="geometry">
            <mxPoint x="100" y="410" as="sourcePoint" />
            <mxPoint x="105" y="410" as="targetPoint" />
          </mxGeometry>
        </mxCell>
        <mxCell id="qH4T-rAI3x5ujD4XWjtl-236" value="&lt;div style=&quot;font-size: 6px;&quot;&gt;bB&lt;/div&gt;" style="text;html=1;align=center;verticalAlign=middle;whiteSpace=wrap;rounded=0;fontSize=6;fontColor=#007FFF;allowArrows=0;connectable=0;spacingLeft=2;spacingTop=2;spacingBottom=2;spacingRight=2;" vertex="1" parent="1">
          <mxGeometry x="116" y="405" width="10" height="10" as="geometry" />
        </mxCell>
        <mxCell id="qH4T-rAI3x5ujD4XWjtl-237" value="&lt;div style=&quot;font-size: 6px;&quot;&gt;nH&lt;/div&gt;" style="text;html=1;align=center;verticalAlign=middle;whiteSpace=wrap;rounded=0;fontSize=6;fontColor=#007FFF;allowArrows=0;connectable=0;spacingLeft=2;spacingTop=2;spacingBottom=2;spacingRight=2;" vertex="1" parent="1">
          <mxGeometry x="183" y="353" width="10" height="10" as="geometry" />
        </mxCell>
        <mxCell id="qH4T-rAI3x5ujD4XWjtl-238" value="" style="endArrow=classicThin;html=1;rounded=0;strokeWidth=0.1;strokeColor=#007FFF;startSize=2;endSize=2;endFill=1;startArrow=classicThin;startFill=1;dashed=1;" edge="1" parent="1">
          <mxGeometry width="50" height="50" relative="1" as="geometry">
            <mxPoint x="180" y="340" as="sourcePoint" />
            <mxPoint x="180" y="379.72" as="targetPoint" />
          </mxGeometry>
        </mxCell>
        <mxCell id="qH4T-rAI3x5ujD4XWjtl-239" value="" style="endArrow=classicThin;html=1;rounded=0;strokeWidth=0.1;strokeColor=#007FFF;startSize=2;endSize=2;endFill=1;startArrow=classicThin;startFill=1;dashed=1;" edge="1" parent="1">
          <mxGeometry width="50" height="50" relative="1" as="geometry">
            <mxPoint x="130" y="330.15" as="sourcePoint" />
            <mxPoint x="150" y="330" as="targetPoint" />
          </mxGeometry>
        </mxCell>
        <mxCell id="qH4T-rAI3x5ujD4XWjtl-240" value="&lt;div style=&quot;font-size: 6px;&quot;&gt;nS&lt;/div&gt;" style="text;html=1;align=center;verticalAlign=middle;whiteSpace=wrap;rounded=0;fontSize=6;fontColor=#007FFF;allowArrows=0;connectable=0;spacingLeft=2;spacingTop=2;spacingBottom=2;spacingRight=2;" vertex="1" parent="1">
          <mxGeometry x="134" y="318.72" width="10" height="10" as="geometry" />
        </mxCell>
        <mxCell id="qH4T-rAI3x5ujD4XWjtl-241" value="" style="endArrow=classicThin;html=1;rounded=0;strokeWidth=0.1;strokeColor=#007FFF;startSize=2;endSize=2;endFill=1;startArrow=classicThin;startFill=1;dashed=1;" edge="1" parent="1">
          <mxGeometry width="50" height="50" relative="1" as="geometry">
            <mxPoint x="180" y="380" as="sourcePoint" />
            <mxPoint x="180" y="410" as="targetPoint" />
          </mxGeometry>
        </mxCell>
        <mxCell id="qH4T-rAI3x5ujD4XWjtl-242" value="&lt;div style=&quot;font-size: 6px;&quot;&gt;nSm&lt;/div&gt;" style="text;html=1;align=center;verticalAlign=middle;whiteSpace=wrap;rounded=0;fontSize=6;fontColor=#007FFF;allowArrows=0;connectable=0;spacingLeft=2;spacingTop=2;spacingBottom=2;spacingRight=2;" vertex="1" parent="1">
          <mxGeometry x="183" y="390" width="17" height="10" as="geometry" />
        </mxCell>
        <mxCell id="qH4T-rAI3x5ujD4XWjtl-243" value="" style="endArrow=classicThin;html=1;rounded=0;strokeWidth=0.1;strokeColor=#007FFF;startSize=2;endSize=2;endFill=1;startArrow=classicThin;startFill=1;dashed=1;" edge="1" parent="1">
          <mxGeometry width="50" height="50" relative="1" as="geometry">
            <mxPoint x="165" y="345.64" as="sourcePoint" />
            <mxPoint x="165" y="360" as="targetPoint" />
          </mxGeometry>
        </mxCell>
        <mxCell id="qH4T-rAI3x5ujD4XWjtl-244" value="&lt;div style=&quot;font-size: 6px;&quot;&gt;tH&lt;/div&gt;" style="text;html=1;align=center;verticalAlign=middle;whiteSpace=wrap;rounded=0;fontSize=6;fontColor=#007FFF;allowArrows=0;connectable=0;spacingLeft=2;spacingTop=2;spacingBottom=2;spacingRight=2;" vertex="1" parent="1">
          <mxGeometry x="165" y="348" width="10" height="10" as="geometry" />
        </mxCell>
        <mxCell id="qH4T-rAI3x5ujD4XWjtl-245" value="" style="endArrow=classicThin;html=1;rounded=0;strokeWidth=0.1;strokeColor=#007FFF;startSize=2;endSize=2;endFill=1;startArrow=classicThin;startFill=1;dashed=1;" edge="1" parent="1">
          <mxGeometry width="50" height="50" relative="1" as="geometry">
            <mxPoint x="165" y="340" as="sourcePoint" />
            <mxPoint x="165" y="346" as="targetPoint" />
          </mxGeometry>
        </mxCell>
        <mxCell id="qH4T-rAI3x5ujD4XWjtl-246" value="&lt;div style=&quot;font-size: 6px;&quot;&gt;tO&lt;/div&gt;" style="text;html=1;align=center;verticalAlign=middle;whiteSpace=wrap;rounded=0;fontSize=6;fontColor=#007FFF;allowArrows=0;connectable=0;spacingLeft=2;spacingTop=2;spacingBottom=2;spacingRight=2;" vertex="1" parent="1">
          <mxGeometry x="165" y="337" width="10" height="10" as="geometry" />
        </mxCell>
        <mxCell id="qH4T-rAI3x5ujD4XWjtl-247" value="" style="endArrow=classicThin;html=1;rounded=0;strokeWidth=0.1;strokeColor=#007FFF;startSize=2;endSize=2;endFill=1;startArrow=none;startFill=0;dashed=1;" edge="1" parent="1">
          <mxGeometry width="50" height="50" relative="1" as="geometry">
            <mxPoint x="160" y="360" as="sourcePoint" />
            <mxPoint x="154" y="360" as="targetPoint" />
          </mxGeometry>
        </mxCell>
        <mxCell id="qH4T-rAI3x5ujD4XWjtl-248" value="" style="endArrow=classicThin;html=1;rounded=0;strokeWidth=0.1;strokeColor=#007FFF;startSize=2;endSize=2;endFill=1;startArrow=none;startFill=0;dashed=1;" edge="1" parent="1">
          <mxGeometry width="50" height="50" relative="1" as="geometry">
            <mxPoint x="144" y="360" as="sourcePoint" />
            <mxPoint x="149" y="360" as="targetPoint" />
          </mxGeometry>
        </mxCell>
        <mxCell id="qH4T-rAI3x5ujD4XWjtl-249" value="&lt;div style=&quot;font-size: 6px;&quot;&gt;tS&lt;/div&gt;" style="text;html=1;align=center;verticalAlign=middle;whiteSpace=wrap;rounded=0;fontSize=6;fontColor=#007FFF;allowArrows=0;connectable=0;spacingLeft=2;spacingTop=2;spacingBottom=2;spacingRight=2;" vertex="1" parent="1">
          <mxGeometry x="152" y="361" width="10" height="10" as="geometry" />
        </mxCell>
        <mxCell id="qH4T-rAI3x5ujD4XWjtl-255" value="" style="endArrow=none;html=1;rounded=0;strokeWidth=0.2;strokeColor=#007FFF;startSize=2;endSize=2;endFill=0;startArrow=none;startFill=0;dashed=1;" edge="1" parent="1">
          <mxGeometry width="50" height="50" relative="1" as="geometry">
            <mxPoint x="250" y="479.72" as="sourcePoint" />
            <mxPoint x="250" y="389.72" as="targetPoint" />
          </mxGeometry>
        </mxCell>
        <mxCell id="qH4T-rAI3x5ujD4XWjtl-256" value="" style="endArrow=none;html=1;rounded=0;strokeWidth=0.2;strokeColor=#007FFF;startSize=2;endSize=2;endFill=0;startArrow=none;startFill=0;dashed=1;" edge="1" parent="1">
          <mxGeometry width="50" height="50" relative="1" as="geometry">
            <mxPoint x="246" y="418.36" as="sourcePoint" />
            <mxPoint x="246" y="389.72" as="targetPoint" />
          </mxGeometry>
        </mxCell>
        <mxCell id="qH4T-rAI3x5ujD4XWjtl-259" value="" style="endArrow=classicThin;html=1;rounded=0;strokeWidth=0.1;strokeColor=#007FFF;startSize=2;endSize=2;endFill=1;startArrow=classicThin;startFill=1;dashed=1;" edge="1" parent="1">
          <mxGeometry width="50" height="50" relative="1" as="geometry">
            <mxPoint x="280" y="489.64" as="sourcePoint" />
            <mxPoint x="310" y="489.64" as="targetPoint" />
          </mxGeometry>
        </mxCell>
        <mxCell id="qH4T-rAI3x5ujD4XWjtl-260" value="&lt;div style=&quot;font-size: 6px;&quot;&gt;bS&lt;/div&gt;" style="text;html=1;align=center;verticalAlign=middle;whiteSpace=wrap;rounded=0;fontSize=6;fontColor=#007FFF;allowArrows=0;connectable=0;spacingLeft=2;spacingTop=2;spacingBottom=2;spacingRight=2;" vertex="1" parent="1">
          <mxGeometry x="280" y="490" width="30" height="10" as="geometry" />
        </mxCell>
        <mxCell id="qH4T-rAI3x5ujD4XWjtl-261" value="" style="endArrow=classicThin;html=1;rounded=0;strokeWidth=0.1;strokeColor=#007FFF;startSize=2;endSize=2;endFill=1;startArrow=none;startFill=0;dashed=1;" edge="1" parent="1">
          <mxGeometry width="50" height="50" relative="1" as="geometry">
            <mxPoint x="318" y="442" as="sourcePoint" />
            <mxPoint x="312" y="442" as="targetPoint" />
          </mxGeometry>
        </mxCell>
        <mxCell id="qH4T-rAI3x5ujD4XWjtl-262" value="" style="endArrow=classicThin;html=1;rounded=0;strokeWidth=0.1;strokeColor=#007FFF;startSize=2;endSize=2;endFill=1;startArrow=none;startFill=0;dashed=1;" edge="1" parent="1">
          <mxGeometry width="50" height="50" relative="1" as="geometry">
            <mxPoint x="303" y="442" as="sourcePoint" />
            <mxPoint x="308" y="442" as="targetPoint" />
          </mxGeometry>
        </mxCell>
        <mxCell id="qH4T-rAI3x5ujD4XWjtl-263" value="&lt;div style=&quot;font-size: 6px;&quot;&gt;bW&lt;/div&gt;" style="text;html=1;align=center;verticalAlign=middle;whiteSpace=wrap;rounded=0;fontSize=6;fontColor=#007FFF;allowArrows=0;connectable=0;spacingLeft=2;spacingTop=2;spacingBottom=2;spacingRight=2;" vertex="1" parent="1">
          <mxGeometry x="320" y="437" width="10" height="10" as="geometry" />
        </mxCell>
        <mxCell id="qH4T-rAI3x5ujD4XWjtl-264" value="" style="endArrow=classicThin;html=1;rounded=0;strokeWidth=0.1;strokeColor=#007FFF;startSize=2;endSize=2;endFill=1;startArrow=none;startFill=0;dashed=1;" edge="1" parent="1">
          <mxGeometry width="50" height="50" relative="1" as="geometry">
            <mxPoint x="256" y="410" as="sourcePoint" />
            <mxPoint x="250" y="410" as="targetPoint" />
          </mxGeometry>
        </mxCell>
        <mxCell id="qH4T-rAI3x5ujD4XWjtl-265" value="" style="endArrow=classicThin;html=1;rounded=0;strokeWidth=0.1;strokeColor=#007FFF;startSize=2;endSize=2;endFill=1;startArrow=none;startFill=0;dashed=1;" edge="1" parent="1">
          <mxGeometry width="50" height="50" relative="1" as="geometry">
            <mxPoint x="240" y="410" as="sourcePoint" />
            <mxPoint x="245" y="410" as="targetPoint" />
          </mxGeometry>
        </mxCell>
        <mxCell id="qH4T-rAI3x5ujD4XWjtl-266" value="&lt;div style=&quot;font-size: 6px;&quot;&gt;bB&lt;/div&gt;" style="text;html=1;align=center;verticalAlign=middle;whiteSpace=wrap;rounded=0;fontSize=6;fontColor=#007FFF;allowArrows=0;connectable=0;spacingLeft=2;spacingTop=2;spacingBottom=2;spacingRight=2;" vertex="1" parent="1">
          <mxGeometry x="256" y="405" width="10" height="10" as="geometry" />
        </mxCell>
        <mxCell id="qH4T-rAI3x5ujD4XWjtl-267" value="&lt;div style=&quot;font-size: 6px;&quot;&gt;nH&lt;/div&gt;" style="text;html=1;align=center;verticalAlign=middle;whiteSpace=wrap;rounded=0;fontSize=6;fontColor=#007FFF;allowArrows=0;connectable=0;spacingLeft=2;spacingTop=2;spacingBottom=2;spacingRight=2;" vertex="1" parent="1">
          <mxGeometry x="323" y="353" width="10" height="10" as="geometry" />
        </mxCell>
        <mxCell id="qH4T-rAI3x5ujD4XWjtl-268" value="" style="endArrow=classicThin;html=1;rounded=0;strokeWidth=0.1;strokeColor=#007FFF;startSize=2;endSize=2;endFill=1;startArrow=classicThin;startFill=1;dashed=1;" edge="1" parent="1">
          <mxGeometry width="50" height="50" relative="1" as="geometry">
            <mxPoint x="320" y="340" as="sourcePoint" />
            <mxPoint x="320" y="379.72" as="targetPoint" />
          </mxGeometry>
        </mxCell>
        <mxCell id="qH4T-rAI3x5ujD4XWjtl-269" value="" style="endArrow=classicThin;html=1;rounded=0;strokeWidth=0.1;strokeColor=#007FFF;startSize=2;endSize=2;endFill=1;startArrow=classicThin;startFill=1;dashed=1;" edge="1" parent="1">
          <mxGeometry width="50" height="50" relative="1" as="geometry">
            <mxPoint x="270" y="330.15" as="sourcePoint" />
            <mxPoint x="290" y="330" as="targetPoint" />
          </mxGeometry>
        </mxCell>
        <mxCell id="qH4T-rAI3x5ujD4XWjtl-270" value="&lt;div style=&quot;font-size: 6px;&quot;&gt;nS&lt;/div&gt;" style="text;html=1;align=center;verticalAlign=middle;whiteSpace=wrap;rounded=0;fontSize=6;fontColor=#007FFF;allowArrows=0;connectable=0;spacingLeft=2;spacingTop=2;spacingBottom=2;spacingRight=2;" vertex="1" parent="1">
          <mxGeometry x="274" y="318.72" width="10" height="10" as="geometry" />
        </mxCell>
        <mxCell id="qH4T-rAI3x5ujD4XWjtl-271" value="" style="endArrow=classicThin;html=1;rounded=0;strokeWidth=0.1;strokeColor=#007FFF;startSize=2;endSize=2;endFill=1;startArrow=classicThin;startFill=1;dashed=1;" edge="1" parent="1">
          <mxGeometry width="50" height="50" relative="1" as="geometry">
            <mxPoint x="320" y="380" as="sourcePoint" />
            <mxPoint x="320" y="410" as="targetPoint" />
          </mxGeometry>
        </mxCell>
        <mxCell id="qH4T-rAI3x5ujD4XWjtl-272" value="&lt;div style=&quot;font-size: 6px;&quot;&gt;nSm&lt;/div&gt;" style="text;html=1;align=center;verticalAlign=middle;whiteSpace=wrap;rounded=0;fontSize=6;fontColor=#007FFF;allowArrows=0;connectable=0;spacingLeft=2;spacingTop=2;spacingBottom=2;spacingRight=2;" vertex="1" parent="1">
          <mxGeometry x="323" y="390" width="17" height="10" as="geometry" />
        </mxCell>
        <mxCell id="qH4T-rAI3x5ujD4XWjtl-280" value="" style="endArrow=oval;html=1;rounded=0;strokeWidth=0.1;strokeColor=#FF0000;startSize=3;endSize=3;exitX=0;exitY=0.5;exitDx=0;exitDy=0;endFill=1;dashed=1;" edge="1" source="qH4T-rAI3x5ujD4XWjtl-281" parent="1">
          <mxGeometry width="50" height="50" relative="1" as="geometry">
            <mxPoint x="307" y="350" as="sourcePoint" />
            <mxPoint x="290" y="340" as="targetPoint" />
          </mxGeometry>
        </mxCell>
        <mxCell id="qH4T-rAI3x5ujD4XWjtl-281" value="5" style="aspect=fixed;rotation=0;connectable=1;allowArrows=0;fillColor=none;strokeColor=#FF0000;strokeWidth=0.1;fontSize=6;spacing=0;spacingBottom=0;rounded=0;whiteSpace=wrap;html=1;shape=ellipse;perimeter=ellipsePerimeter;fontColor=#FF0000;dashed=1;" vertex="1" parent="1">
          <mxGeometry x="300" y="335" width="10" height="10" as="geometry" />
        </mxCell>
        <mxCell id="qH4T-rAI3x5ujD4XWjtl-282" value="" style="endArrow=oval;html=1;rounded=0;strokeWidth=0.1;strokeColor=#FF0000;startSize=3;endSize=3;exitX=0.5;exitY=1;exitDx=0;exitDy=0;endFill=1;dashed=1;" edge="1" source="qH4T-rAI3x5ujD4XWjtl-283" parent="1">
          <mxGeometry width="50" height="50" relative="1" as="geometry">
            <mxPoint x="312" y="327" as="sourcePoint" />
            <mxPoint x="285" y="340" as="targetPoint" />
          </mxGeometry>
        </mxCell>
        <mxCell id="qH4T-rAI3x5ujD4XWjtl-283" value="12" style="aspect=fixed;rotation=0;connectable=1;allowArrows=0;fillColor=none;strokeColor=#FF0000;strokeWidth=0.1;fontSize=6;spacing=0;spacingBottom=0;rounded=0;whiteSpace=wrap;html=1;shape=ellipse;perimeter=ellipsePerimeter;fontColor=#FF0000;dashed=1;" vertex="1" parent="1">
          <mxGeometry x="283" y="309" width="10" height="10" as="geometry" />
        </mxCell>
        <mxCell id="qH4T-rAI3x5ujD4XWjtl-284" value="" style="endArrow=oval;html=1;rounded=0;strokeWidth=0.1;strokeColor=#FF0000;startSize=3;endSize=3;exitX=0.5;exitY=1;exitDx=0;exitDy=0;endFill=1;dashed=1;" edge="1" source="qH4T-rAI3x5ujD4XWjtl-285" parent="1">
          <mxGeometry width="50" height="50" relative="1" as="geometry">
            <mxPoint x="297" y="311" as="sourcePoint" />
            <mxPoint x="280" y="340" as="targetPoint" />
          </mxGeometry>
        </mxCell>
        <mxCell id="qH4T-rAI3x5ujD4XWjtl-321" value="" style="endArrow=none;html=1;rounded=0;strokeWidth=0.5;dashed=1;strokeColor=#000000;" edge="1" parent="1">
          <mxGeometry width="50" height="50" relative="1" as="geometry">
            <mxPoint x="285" y="340" as="sourcePoint" />
            <mxPoint x="280" y="474" as="targetPoint" />
            <Array as="points">
              <mxPoint x="285" y="380" />
              <mxPoint x="310" y="410" />
              <mxPoint x="306" y="474" />
            </Array>
          </mxGeometry>
        </mxCell>
        <mxCell id="qH4T-rAI3x5ujD4XWjtl-285" value="13" style="aspect=fixed;rotation=0;connectable=1;allowArrows=0;fillColor=none;strokeColor=#FF0000;strokeWidth=0.1;fontSize=6;spacing=0;spacingBottom=0;rounded=0;whiteSpace=wrap;html=1;shape=ellipse;perimeter=ellipsePerimeter;fontColor=#FF0000;dashed=1;" vertex="1" parent="1">
          <mxGeometry x="268" y="309" width="10" height="10" as="geometry" />
        </mxCell>
        <mxCell id="qH4T-rAI3x5ujD4XWjtl-298" value="&lt;div style=&quot;font-size: 6px;&quot;&gt;bH&lt;/div&gt;" style="text;html=1;align=center;verticalAlign=middle;whiteSpace=wrap;rounded=0;fontSize=6;fontColor=#007FFF;allowArrows=0;connectable=0;spacingLeft=2;spacingTop=2;spacingBottom=2;spacingRight=2;" vertex="1" parent="1">
          <mxGeometry x="365" y="400.5" width="10" height="10" as="geometry" />
        </mxCell>
        <mxCell id="qH4T-rAI3x5ujD4XWjtl-322" value="7" style="aspect=fixed;rotation=0;connectable=1;allowArrows=0;fillColor=none;strokeColor=#FF0000;strokeWidth=0.1;fontSize=6;spacing=0;spacingBottom=0;rounded=0;whiteSpace=wrap;html=1;shape=ellipse;perimeter=ellipsePerimeter;fontColor=#FF0000;dashed=1;" vertex="1" parent="1">
          <mxGeometry x="270" y="385" width="10" height="10" as="geometry" />
        </mxCell>
        <mxCell id="qH4T-rAI3x5ujD4XWjtl-323" value="" style="endArrow=oval;html=1;rounded=0;strokeWidth=0.1;strokeColor=#FF0000;startSize=3;endSize=3;exitX=1;exitY=0;exitDx=0;exitDy=0;endFill=1;dashed=1;" edge="1" parent="1" source="qH4T-rAI3x5ujD4XWjtl-322">
          <mxGeometry width="50" height="50" relative="1" as="geometry">
            <mxPoint x="301.5" y="353" as="sourcePoint" />
            <mxPoint x="285" y="380" as="targetPoint" />
          </mxGeometry>
        </mxCell>
        <mxCell id="qH4T-rAI3x5ujD4XWjtl-324" value="8" style="aspect=fixed;rotation=0;connectable=1;allowArrows=0;fillColor=none;strokeColor=#FF0000;strokeWidth=0.1;fontSize=6;spacing=0;spacingBottom=0;rounded=0;whiteSpace=wrap;html=1;shape=ellipse;perimeter=ellipsePerimeter;fontColor=#FF0000;dashed=1;" vertex="1" parent="1">
          <mxGeometry x="284" y="405" width="10" height="10" as="geometry" />
        </mxCell>
        <mxCell id="qH4T-rAI3x5ujD4XWjtl-325" value="" style="endArrow=oval;html=1;rounded=0;strokeWidth=0.1;strokeColor=#FF0000;startSize=3;endSize=3;exitX=1;exitY=0.5;exitDx=0;exitDy=0;endFill=1;dashed=1;" edge="1" parent="1" source="qH4T-rAI3x5ujD4XWjtl-324">
          <mxGeometry width="50" height="50" relative="1" as="geometry">
            <mxPoint x="289" y="396" as="sourcePoint" />
            <mxPoint x="310" y="410" as="targetPoint" />
          </mxGeometry>
        </mxCell>
        <mxCell id="qH4T-rAI3x5ujD4XWjtl-326" value="9" style="aspect=fixed;rotation=0;connectable=1;allowArrows=0;fillColor=none;strokeColor=#FF0000;strokeWidth=0.1;fontSize=6;spacing=0;spacingBottom=0;rounded=0;whiteSpace=wrap;html=1;shape=ellipse;perimeter=ellipsePerimeter;fontColor=#FF0000;dashed=1;" vertex="1" parent="1">
          <mxGeometry x="295" y="455" width="10" height="10" as="geometry" />
        </mxCell>
        <mxCell id="qH4T-rAI3x5ujD4XWjtl-327" value="" style="endArrow=oval;html=1;rounded=0;strokeWidth=0.1;strokeColor=#FF0000;startSize=3;endSize=3;endFill=1;dashed=1;" edge="1" parent="1">
          <mxGeometry width="50" height="50" relative="1" as="geometry">
            <mxPoint x="302" y="465" as="sourcePoint" />
            <mxPoint x="306" y="474" as="targetPoint" />
          </mxGeometry>
        </mxCell>
        <mxCell id="qH4T-rAI3x5ujD4XWjtl-328" value="10" style="aspect=fixed;rotation=0;connectable=1;allowArrows=0;fillColor=none;strokeColor=#FF0000;strokeWidth=0.1;fontSize=6;spacing=0;spacingBottom=0;rounded=0;whiteSpace=wrap;html=1;shape=ellipse;perimeter=ellipsePerimeter;fontColor=#FF0000;dashed=1;" vertex="1" parent="1">
          <mxGeometry x="285" y="455" width="10" height="10" as="geometry" />
        </mxCell>
        <mxCell id="qH4T-rAI3x5ujD4XWjtl-329" value="" style="endArrow=oval;html=1;rounded=0;strokeWidth=0.1;strokeColor=#FF0000;startSize=3;endSize=3;exitX=1;exitY=1;exitDx=0;exitDy=0;endFill=1;dashed=1;" edge="1" source="qH4T-rAI3x5ujD4XWjtl-328" parent="1">
          <mxGeometry width="50" height="50" relative="1" as="geometry">
            <mxPoint x="271" y="438" as="sourcePoint" />
            <mxPoint x="299" y="474" as="targetPoint" />
          </mxGeometry>
        </mxCell>
        <mxCell id="qH4T-rAI3x5ujD4XWjtl-330" value="11" style="aspect=fixed;rotation=0;connectable=1;allowArrows=0;fillColor=none;strokeColor=#FF0000;strokeWidth=0.1;fontSize=6;spacing=0;spacingBottom=0;rounded=0;whiteSpace=wrap;html=1;shape=ellipse;perimeter=ellipsePerimeter;fontColor=#FF0000;dashed=1;" vertex="1" parent="1">
          <mxGeometry x="275" y="455" width="10" height="10" as="geometry" />
        </mxCell>
        <mxCell id="qH4T-rAI3x5ujD4XWjtl-331" value="" style="endArrow=oval;html=1;rounded=0;strokeWidth=0.1;strokeColor=#FF0000;startSize=3;endSize=3;endFill=1;dashed=1;exitX=0.5;exitY=1;exitDx=0;exitDy=0;" edge="1" source="qH4T-rAI3x5ujD4XWjtl-330" parent="1">
          <mxGeometry width="50" height="50" relative="1" as="geometry">
            <mxPoint x="269" y="463" as="sourcePoint" />
            <mxPoint x="280" y="474" as="targetPoint" />
          </mxGeometry>
        </mxCell>
        <mxCell id="qH4T-rAI3x5ujD4XWjtl-332" value="" style="endArrow=none;html=1;rounded=0;strokeWidth=0.5;dashed=1;strokeColor=#000000;" edge="1" parent="1">
          <mxGeometry width="50" height="50" relative="1" as="geometry">
            <mxPoint x="145" y="340" as="sourcePoint" />
            <mxPoint x="155" y="475" as="targetPoint" />
            <Array as="points">
              <mxPoint x="145" y="380" />
              <mxPoint x="165" y="400" />
              <mxPoint x="169" y="405" />
              <mxPoint x="170" y="410" />
              <mxPoint x="166" y="475" />
            </Array>
          </mxGeometry>
        </mxCell>
        <mxCell id="qH4T-rAI3x5ujD4XWjtl-333" value="" style="endArrow=none;html=1;rounded=0;curved=1;strokeWidth=0.5;dashed=1;" edge="1" parent="1">
          <mxGeometry width="50" height="50" relative="1" as="geometry">
            <mxPoint x="155" y="475" as="sourcePoint" />
            <mxPoint x="140" y="462" as="targetPoint" />
            <Array as="points">
              <mxPoint x="150" y="475" />
              <mxPoint x="146" y="461" />
            </Array>
          </mxGeometry>
        </mxCell>
        <mxCell id="qH4T-rAI3x5ujD4XWjtl-334" value="" style="endArrow=oval;html=1;rounded=0;strokeWidth=0.1;strokeColor=#FF0000;startSize=3;endSize=3;exitX=0.5;exitY=0;exitDx=0;exitDy=0;endFill=1;dashed=1;" edge="1" source="qH4T-rAI3x5ujD4XWjtl-335" parent="1">
          <mxGeometry width="50" height="50" relative="1" as="geometry">
            <mxPoint x="153.25" y="490.36" as="sourcePoint" />
            <mxPoint x="140" y="480" as="targetPoint" />
          </mxGeometry>
        </mxCell>
        <mxCell id="qH4T-rAI3x5ujD4XWjtl-335" value="0" style="aspect=fixed;rotation=0;connectable=1;allowArrows=0;fillColor=none;strokeColor=#FF0000;strokeWidth=0.1;fontSize=6;spacing=0;spacingBottom=0;rounded=0;whiteSpace=wrap;html=1;shape=ellipse;perimeter=ellipsePerimeter;fontColor=#FF0000;dashed=1;" vertex="1" parent="1">
          <mxGeometry x="135" y="500" width="10" height="10" as="geometry" />
        </mxCell>
        <mxCell id="qH4T-rAI3x5ujD4XWjtl-336" value="" style="endArrow=oval;html=1;rounded=0;strokeWidth=0.1;strokeColor=#FF0000;startSize=3;endSize=3;endFill=1;dashed=1;" edge="1" parent="1">
          <mxGeometry width="50" height="50" relative="1" as="geometry">
            <mxPoint x="140" y="480" as="sourcePoint" />
            <mxPoint x="140" y="466" as="targetPoint" />
          </mxGeometry>
        </mxCell>
        <mxCell id="qH4T-rAI3x5ujD4XWjtl-337" value="" style="endArrow=oval;html=1;rounded=0;strokeWidth=0.1;strokeColor=#FF0000;startSize=3;endSize=3;exitX=0.5;exitY=0;exitDx=0;exitDy=0;endFill=1;dashed=1;" edge="1" source="qH4T-rAI3x5ujD4XWjtl-338" parent="1">
          <mxGeometry width="50" height="50" relative="1" as="geometry">
            <mxPoint x="165" y="480" as="sourcePoint" />
            <mxPoint x="147" y="470" as="targetPoint" />
          </mxGeometry>
        </mxCell>
        <mxCell id="qH4T-rAI3x5ujD4XWjtl-338" value="1" style="aspect=fixed;rotation=0;connectable=1;allowArrows=0;fillColor=none;strokeColor=#FF0000;strokeWidth=0.1;fontSize=6;spacing=0;spacingBottom=0;rounded=0;whiteSpace=wrap;html=1;shape=ellipse;perimeter=ellipsePerimeter;fontColor=#FF0000;dashed=1;" vertex="1" parent="1">
          <mxGeometry x="142" y="510" width="10" height="10" as="geometry" />
        </mxCell>
        <mxCell id="qH4T-rAI3x5ujD4XWjtl-339" value="2" style="aspect=fixed;rotation=0;connectable=1;allowArrows=0;fillColor=none;strokeColor=#FF0000;strokeWidth=0.1;fontSize=6;spacing=0;spacingBottom=0;rounded=0;whiteSpace=wrap;html=1;shape=ellipse;perimeter=ellipsePerimeter;fontColor=#FF0000;dashed=1;" vertex="1" parent="1">
          <mxGeometry x="155" y="500" width="10" height="10" as="geometry" />
        </mxCell>
        <mxCell id="qH4T-rAI3x5ujD4XWjtl-340" value="" style="endArrow=oval;html=1;rounded=0;strokeWidth=0.1;strokeColor=#FF0000;startSize=3;endSize=3;exitX=0.5;exitY=0;exitDx=0;exitDy=0;endFill=1;dashed=1;" edge="1" source="qH4T-rAI3x5ujD4XWjtl-339" parent="1">
          <mxGeometry width="50" height="50" relative="1" as="geometry">
            <mxPoint x="178" y="490" as="sourcePoint" />
            <mxPoint x="160" y="480" as="targetPoint" />
          </mxGeometry>
        </mxCell>
        <mxCell id="qH4T-rAI3x5ujD4XWjtl-341" value="" style="endArrow=oval;html=1;rounded=0;strokeWidth=0.1;strokeColor=#FF0000;startSize=3;endSize=3;exitX=0.5;exitY=0;exitDx=0;exitDy=0;endFill=1;dashed=1;" edge="1" source="qH4T-rAI3x5ujD4XWjtl-342" parent="1">
          <mxGeometry width="50" height="50" relative="1" as="geometry">
            <mxPoint x="188" y="490" as="sourcePoint" />
            <mxPoint x="170" y="480" as="targetPoint" />
          </mxGeometry>
        </mxCell>
        <mxCell id="qH4T-rAI3x5ujD4XWjtl-342" value="3" style="aspect=fixed;rotation=0;connectable=1;allowArrows=0;fillColor=none;strokeColor=#FF0000;strokeWidth=0.1;fontSize=6;spacing=0;spacingBottom=0;rounded=0;whiteSpace=wrap;html=1;shape=ellipse;perimeter=ellipsePerimeter;fontColor=#FF0000;dashed=1;" vertex="1" parent="1">
          <mxGeometry x="165" y="500" width="10" height="10" as="geometry" />
        </mxCell>
        <mxCell id="qH4T-rAI3x5ujD4XWjtl-343" value="4" style="aspect=fixed;rotation=0;connectable=1;allowArrows=0;fillColor=none;strokeColor=#FF0000;strokeWidth=0.1;fontSize=6;spacing=0;spacingBottom=0;rounded=0;whiteSpace=wrap;html=1;shape=ellipse;perimeter=ellipsePerimeter;fontColor=#FF0000;dashed=1;" vertex="1" parent="1">
          <mxGeometry x="193" y="405" width="10" height="10" as="geometry" />
        </mxCell>
        <mxCell id="qH4T-rAI3x5ujD4XWjtl-344" value="" style="endArrow=oval;html=1;rounded=0;strokeWidth=0.1;strokeColor=#FF0000;startSize=3;endSize=3;exitX=0;exitY=0.5;exitDx=0;exitDy=0;endFill=1;dashed=1;" edge="1" source="qH4T-rAI3x5ujD4XWjtl-343" parent="1">
          <mxGeometry width="50" height="50" relative="1" as="geometry">
            <mxPoint x="223" y="411.5" as="sourcePoint" />
            <mxPoint x="174" y="410" as="targetPoint" />
          </mxGeometry>
        </mxCell>
        <mxCell id="qH4T-rAI3x5ujD4XWjtl-345" value="5" style="aspect=fixed;rotation=0;connectable=1;allowArrows=0;fillColor=none;strokeColor=#FF0000;strokeWidth=0.1;fontSize=6;spacing=0;spacingBottom=0;rounded=0;whiteSpace=wrap;html=1;shape=ellipse;perimeter=ellipsePerimeter;fontColor=#FF0000;dashed=1;" vertex="1" parent="1">
          <mxGeometry x="165" y="382" width="10" height="10" as="geometry" />
        </mxCell>
        <mxCell id="qH4T-rAI3x5ujD4XWjtl-346" value="" style="endArrow=oval;html=1;rounded=0;strokeWidth=0.1;strokeColor=#FF0000;startSize=3;endSize=3;endFill=1;dashed=1;" edge="1" source="qH4T-rAI3x5ujD4XWjtl-345" parent="1">
          <mxGeometry width="50" height="50" relative="1" as="geometry">
            <mxPoint x="200" y="381.5" as="sourcePoint" />
            <mxPoint x="151" y="380" as="targetPoint" />
          </mxGeometry>
        </mxCell>
        <mxCell id="qH4T-rAI3x5ujD4XWjtl-347" value="" style="endArrow=oval;html=1;rounded=0;strokeWidth=0.1;strokeColor=#FF0000;startSize=3;endSize=3;endFill=1;dashed=1;" edge="1" source="qH4T-rAI3x5ujD4XWjtl-348" parent="1">
          <mxGeometry width="50" height="50" relative="1" as="geometry">
            <mxPoint x="157" y="372" as="sourcePoint" />
            <mxPoint x="150" y="360" as="targetPoint" />
          </mxGeometry>
        </mxCell>
        <mxCell id="qH4T-rAI3x5ujD4XWjtl-348" value="6" style="aspect=fixed;rotation=0;connectable=1;allowArrows=0;fillColor=none;strokeColor=#FF0000;strokeWidth=0.1;fontSize=6;spacing=0;spacingBottom=0;rounded=0;whiteSpace=wrap;html=1;shape=ellipse;perimeter=ellipsePerimeter;fontColor=#FF0000;dashed=1;" vertex="1" parent="1">
          <mxGeometry x="156" y="371" width="10" height="10" as="geometry" />
        </mxCell>
        <mxCell id="qH4T-rAI3x5ujD4XWjtl-349" value="7" style="aspect=fixed;rotation=0;connectable=1;allowArrows=0;fillColor=none;strokeColor=#FF0000;strokeWidth=0.1;fontSize=6;spacing=0;spacingBottom=0;rounded=0;whiteSpace=wrap;html=1;shape=ellipse;perimeter=ellipsePerimeter;fontColor=#FF0000;dashed=1;" vertex="1" parent="1">
          <mxGeometry x="168" y="367" width="10" height="10" as="geometry" />
        </mxCell>
        <mxCell id="qH4T-rAI3x5ujD4XWjtl-350" value="" style="endArrow=oval;html=1;rounded=0;strokeWidth=0.1;strokeColor=#FF0000;startSize=3;endSize=3;endFill=1;dashed=1;" edge="1" parent="1" source="qH4T-rAI3x5ujD4XWjtl-349">
          <mxGeometry width="50" height="50" relative="1" as="geometry">
            <mxPoint x="169" y="369" as="sourcePoint" />
            <mxPoint x="152.5" y="360" as="targetPoint" />
          </mxGeometry>
        </mxCell>
        <mxCell id="qH4T-rAI3x5ujD4XWjtl-351" value="8" style="aspect=fixed;rotation=0;connectable=1;allowArrows=0;fillColor=none;strokeColor=#FF0000;strokeWidth=0.1;fontSize=6;spacing=0;spacingBottom=0;rounded=0;whiteSpace=wrap;html=1;shape=ellipse;perimeter=ellipsePerimeter;fontColor=#FF0000;dashed=1;" vertex="1" parent="1">
          <mxGeometry x="170" y="329" width="10" height="10" as="geometry" />
        </mxCell>
        <mxCell id="qH4T-rAI3x5ujD4XWjtl-352" value="" style="endArrow=oval;html=1;rounded=0;strokeWidth=0.1;strokeColor=#FF0000;startSize=3;endSize=3;endFill=1;dashed=1;" edge="1" parent="1" source="qH4T-rAI3x5ujD4XWjtl-351">
          <mxGeometry width="50" height="50" relative="1" as="geometry">
            <mxPoint x="157" y="326" as="sourcePoint" />
            <mxPoint x="153" y="345" as="targetPoint" />
          </mxGeometry>
        </mxCell>
        <mxCell id="qH4T-rAI3x5ujD4XWjtl-353" value="9" style="aspect=fixed;rotation=0;connectable=1;allowArrows=0;fillColor=none;strokeColor=#FF0000;strokeWidth=0.1;fontSize=6;spacing=0;spacingBottom=0;rounded=0;whiteSpace=wrap;html=1;shape=ellipse;perimeter=ellipsePerimeter;fontColor=#FF0000;dashed=1;" vertex="1" parent="1">
          <mxGeometry x="170" y="318" width="10" height="10" as="geometry" />
        </mxCell>
        <mxCell id="qH4T-rAI3x5ujD4XWjtl-354" value="" style="endArrow=oval;html=1;rounded=0;strokeWidth=0.1;strokeColor=#FF0000;startSize=3;endSize=3;endFill=1;dashed=1;" edge="1" parent="1" source="qH4T-rAI3x5ujD4XWjtl-353">
          <mxGeometry width="50" height="50" relative="1" as="geometry">
            <mxPoint x="172" y="324" as="sourcePoint" />
            <mxPoint x="150" y="345" as="targetPoint" />
          </mxGeometry>
        </mxCell>
        <mxCell id="qH4T-rAI3x5ujD4XWjtl-355" value="10" style="aspect=fixed;rotation=0;connectable=1;allowArrows=0;fillColor=none;strokeColor=#FF0000;strokeWidth=0.1;fontSize=6;spacing=0;spacingBottom=0;rounded=0;whiteSpace=wrap;html=1;shape=ellipse;perimeter=ellipsePerimeter;fontColor=#FF0000;dashed=1;" vertex="1" parent="1">
          <mxGeometry x="160" y="312" width="10" height="10" as="geometry" />
        </mxCell>
        <mxCell id="qH4T-rAI3x5ujD4XWjtl-356" value="" style="endArrow=oval;html=1;rounded=0;strokeWidth=0.1;strokeColor=#FF0000;startSize=3;endSize=3;endFill=1;dashed=1;" edge="1" parent="1" source="qH4T-rAI3x5ujD4XWjtl-355">
          <mxGeometry width="50" height="50" relative="1" as="geometry">
            <mxPoint x="151" y="305.23" as="sourcePoint" />
            <mxPoint x="150" y="340" as="targetPoint" />
          </mxGeometry>
        </mxCell>
        <mxCell id="qH4T-rAI3x5ujD4XWjtl-357" value="6" style="aspect=fixed;rotation=0;connectable=1;allowArrows=0;fillColor=none;strokeColor=#FF0000;strokeWidth=0.1;fontSize=6;spacing=0;spacingBottom=0;rounded=0;whiteSpace=wrap;html=1;shape=ellipse;perimeter=ellipsePerimeter;fontColor=#FF0000;dashed=1;" vertex="1" parent="1">
          <mxGeometry x="297" y="318" width="10" height="10" as="geometry" />
        </mxCell>
        <mxCell id="qH4T-rAI3x5ujD4XWjtl-358" value="" style="endArrow=oval;html=1;rounded=0;strokeWidth=0.1;strokeColor=#FF0000;startSize=3;endSize=3;exitX=0;exitY=1;exitDx=0;exitDy=0;endFill=1;dashed=1;" edge="1" parent="1" source="qH4T-rAI3x5ujD4XWjtl-357">
          <mxGeometry width="50" height="50" relative="1" as="geometry">
            <mxPoint x="259" y="337" as="sourcePoint" />
            <mxPoint x="285" y="340" as="targetPoint" />
          </mxGeometry>
        </mxCell>
        <mxCell id="qH4T-rAI3x5ujD4XWjtl-359" value="18" style="aspect=fixed;rotation=0;connectable=1;allowArrows=0;fillColor=none;strokeColor=#FF0000;strokeWidth=0.1;fontSize=6;spacing=0;spacingBottom=0;rounded=0;whiteSpace=wrap;html=1;shape=ellipse;perimeter=ellipsePerimeter;fontColor=#FF0000;dashed=1;" vertex="1" parent="1">
          <mxGeometry x="135" y="309" width="10" height="10" as="geometry" />
        </mxCell>
        <mxCell id="qH4T-rAI3x5ujD4XWjtl-362" value="" style="endArrow=oval;html=1;rounded=0;strokeWidth=0.1;strokeColor=#FF0000;startSize=3;endSize=3;endFill=1;dashed=1;" edge="1" parent="1" source="qH4T-rAI3x5ujD4XWjtl-359">
          <mxGeometry width="50" height="50" relative="1" as="geometry">
            <mxPoint x="136" y="317" as="sourcePoint" />
            <mxPoint x="140" y="340" as="targetPoint" />
          </mxGeometry>
        </mxCell>
        <mxCell id="qH4T-rAI3x5ujD4XWjtl-363" value="11" style="aspect=fixed;rotation=0;connectable=1;allowArrows=0;fillColor=none;strokeColor=#FF0000;strokeWidth=0.1;fontSize=6;spacing=0;spacingBottom=0;rounded=0;whiteSpace=wrap;html=1;shape=ellipse;perimeter=ellipsePerimeter;fontColor=#FF0000;dashed=1;" vertex="1" parent="1">
          <mxGeometry x="132" y="348" width="10" height="10" as="geometry" />
        </mxCell>
        <mxCell id="qH4T-rAI3x5ujD4XWjtl-364" value="" style="endArrow=oval;html=1;rounded=0;strokeWidth=0.1;strokeColor=#FF0000;startSize=3;endSize=3;endFill=1;dashed=1;" edge="1" parent="1">
          <mxGeometry width="50" height="50" relative="1" as="geometry">
            <mxPoint x="140" y="349" as="sourcePoint" />
            <mxPoint x="145" y="340" as="targetPoint" />
          </mxGeometry>
        </mxCell>
        <mxCell id="qH4T-rAI3x5ujD4XWjtl-365" value="12" style="aspect=fixed;rotation=0;connectable=1;allowArrows=0;fillColor=none;strokeColor=#FF0000;strokeWidth=0.1;fontSize=6;spacing=0;spacingBottom=0;rounded=0;whiteSpace=wrap;html=1;shape=ellipse;perimeter=ellipsePerimeter;fontColor=#FF0000;dashed=1;" vertex="1" parent="1">
          <mxGeometry x="130" y="385" width="10" height="10" as="geometry" />
        </mxCell>
        <mxCell id="qH4T-rAI3x5ujD4XWjtl-366" value="" style="endArrow=oval;html=1;rounded=0;strokeWidth=0.1;strokeColor=#FF0000;startSize=3;endSize=3;endFill=1;dashed=1;" edge="1" parent="1" source="qH4T-rAI3x5ujD4XWjtl-365">
          <mxGeometry width="50" height="50" relative="1" as="geometry">
            <mxPoint x="134" y="390" as="sourcePoint" />
            <mxPoint x="145" y="380" as="targetPoint" />
          </mxGeometry>
        </mxCell>
        <mxCell id="qH4T-rAI3x5ujD4XWjtl-367" value="13" style="aspect=fixed;rotation=0;connectable=1;allowArrows=0;fillColor=none;strokeColor=#FF0000;strokeWidth=0.1;fontSize=6;spacing=0;spacingBottom=0;rounded=0;whiteSpace=wrap;html=1;shape=ellipse;perimeter=ellipsePerimeter;fontColor=#FF0000;dashed=1;" vertex="1" parent="1">
          <mxGeometry x="141" y="405" width="10" height="10" as="geometry" />
        </mxCell>
        <mxCell id="qH4T-rAI3x5ujD4XWjtl-368" value="" style="endArrow=oval;html=1;rounded=0;strokeWidth=0.1;strokeColor=#FF0000;startSize=3;endSize=3;endFill=1;dashed=1;exitX=1;exitY=0.5;exitDx=0;exitDy=0;" edge="1" parent="1" source="qH4T-rAI3x5ujD4XWjtl-367">
          <mxGeometry width="50" height="50" relative="1" as="geometry">
            <mxPoint x="140.46" y="400.04" as="sourcePoint" />
            <mxPoint x="170" y="410" as="targetPoint" />
          </mxGeometry>
        </mxCell>
        <mxCell id="qH4T-rAI3x5ujD4XWjtl-369" value="14" style="aspect=fixed;rotation=0;connectable=1;allowArrows=0;fillColor=none;strokeColor=#FF0000;strokeWidth=0.1;fontSize=6;spacing=0;spacingBottom=0;rounded=0;whiteSpace=wrap;html=1;shape=ellipse;perimeter=ellipsePerimeter;fontColor=#FF0000;dashed=1;" vertex="1" parent="1">
          <mxGeometry x="155" y="445" width="10" height="10" as="geometry" />
        </mxCell>
        <mxCell id="qH4T-rAI3x5ujD4XWjtl-370" value="" style="endArrow=oval;html=1;rounded=0;strokeWidth=0.1;strokeColor=#FF0000;startSize=3;endSize=3;endFill=1;dashed=1;" edge="1" parent="1">
          <mxGeometry width="50" height="50" relative="1" as="geometry">
            <mxPoint x="161" y="455" as="sourcePoint" />
            <mxPoint x="166" y="475" as="targetPoint" />
          </mxGeometry>
        </mxCell>
        <mxCell id="qH4T-rAI3x5ujD4XWjtl-371" value="15" style="aspect=fixed;rotation=0;connectable=1;allowArrows=0;fillColor=none;strokeColor=#FF0000;strokeWidth=0.1;fontSize=6;spacing=0;spacingBottom=0;rounded=0;whiteSpace=wrap;html=1;shape=ellipse;perimeter=ellipsePerimeter;fontColor=#FF0000;dashed=1;" vertex="1" parent="1">
          <mxGeometry x="153" y="460" width="10" height="10" as="geometry" />
        </mxCell>
        <mxCell id="qH4T-rAI3x5ujD4XWjtl-372" value="17" style="aspect=fixed;rotation=0;connectable=1;allowArrows=0;fillColor=none;strokeColor=#FF0000;strokeWidth=0.1;fontSize=6;spacing=0;spacingBottom=0;rounded=0;whiteSpace=wrap;html=1;shape=ellipse;perimeter=ellipsePerimeter;fontColor=#FF0000;dashed=1;" vertex="1" parent="1">
          <mxGeometry x="135" y="445" width="10" height="10" as="geometry" />
        </mxCell>
        <mxCell id="qH4T-rAI3x5ujD4XWjtl-373" value="" style="endArrow=oval;html=1;rounded=0;strokeWidth=0.1;strokeColor=#FF0000;startSize=3;endSize=3;endFill=1;dashed=1;exitX=0.484;exitY=0.867;exitDx=0;exitDy=0;exitPerimeter=0;" edge="1" parent="1" source="qH4T-rAI3x5ujD4XWjtl-371">
          <mxGeometry width="50" height="50" relative="1" as="geometry">
            <mxPoint x="180" y="470" as="sourcePoint" />
            <mxPoint x="159" y="475" as="targetPoint" />
          </mxGeometry>
        </mxCell>
        <mxCell id="qH4T-rAI3x5ujD4XWjtl-374" value="16" style="aspect=fixed;rotation=0;connectable=1;allowArrows=0;fillColor=none;strokeColor=#FF0000;strokeWidth=0.1;fontSize=6;spacing=0;spacingBottom=0;rounded=0;whiteSpace=wrap;html=1;shape=ellipse;perimeter=ellipsePerimeter;fontColor=#FF0000;dashed=1;" vertex="1" parent="1">
          <mxGeometry x="145" y="452" width="10" height="10" as="geometry" />
        </mxCell>
        <mxCell id="qH4T-rAI3x5ujD4XWjtl-375" value="" style="endArrow=oval;html=1;rounded=0;strokeWidth=0.1;strokeColor=#FF0000;startSize=3;endSize=3;endFill=1;dashed=1;exitX=0.484;exitY=0.88;exitDx=0;exitDy=0;exitPerimeter=0;" edge="1" parent="1" source="qH4T-rAI3x5ujD4XWjtl-374">
          <mxGeometry width="50" height="50" relative="1" as="geometry">
            <mxPoint x="168" y="479" as="sourcePoint" />
            <mxPoint x="149" y="466" as="targetPoint" />
          </mxGeometry>
        </mxCell>
        <mxCell id="qH4T-rAI3x5ujD4XWjtl-376" value="" style="endArrow=oval;html=1;rounded=0;strokeWidth=0.1;strokeColor=#FF0000;startSize=3;endSize=3;endFill=1;dashed=1;exitX=0.5;exitY=1;exitDx=0;exitDy=0;" edge="1" parent="1" source="qH4T-rAI3x5ujD4XWjtl-372">
          <mxGeometry width="50" height="50" relative="1" as="geometry">
            <mxPoint x="160" y="471" as="sourcePoint" />
            <mxPoint x="140" y="462" as="targetPoint" />
          </mxGeometry>
        </mxCell>
      </root>
    </mxGraphModel>
  </diagram>
</mxfile>
